<svg xmlns="http://www.w3.org/2000/svg" width="22" height="22" fill="none">
  <path stroke="#475DA7" stroke-linecap="round" stroke-linejoin="round" stroke-width="2" d="M20.9438 15.956v3c.0011.2785-.0559.5542-.1675.8093-.1116.2552-.2752.4843-.4804.6726-.2053.1882-.4475.3316-.7114.4208-.2638.0892-.5433.1224-.8207.0973-3.0772-.3344-6.033-1.3859-8.63-3.07-2.41619-1.5353-4.46468-3.5838-6.00002-6-1.69002-2.60881-2.74176-5.57902-3.07-8.67001-.02499-.27654.00788-.55524.0965-.81838.08863-.26314.23107-.50494.41827-.71.18719-.20507.41504-.36892.66902-.4811.25399-.11219.52855-.17026.80621-.17052h3c.48531-.00478.95579.16707 1.32376.48353.36797.31645.60832.75591.67624 1.23647.12662.96006.36145 1.90272.7 2.81.13454.35792.16366.74691.08391 1.12088-.07976.37396-.26505.71723-.53391.98912l-1.27 1.27C8.45734 11.4495 10.5302 13.5224 13.0338 14.946l1.27-1.27c.2719-.2689.6151-.4542.9891-.5339.374-.0798.763-.0507 1.1209.0839.9073.3385 1.8499.5734 2.81.7.4857.0685.9294.3132 1.2465.6875.3171.3743.4856.8521.4735 1.3425Z"/>
</svg>