<svg xmlns="http://www.w3.org/2000/svg" width="203" height="59" fill="none">
  <mask id="a" style="mask-type:luminance" maskUnits="userSpaceOnUse" x="0" y="0" width="202" height="53">
    <path d="M201.871 0H0v52.914h201.871V0Z" fill="#fff"/>
  </mask>
  <g mask="url(#a)" fill="#fff">
    <path d="M78.0893 21.9434H75.874V11.1106h2.2153l3.1846 4.4442 3.046-4.4442h2.2153v10.8328h-2.2153v-7.4997l-2.4922 3.611h-1.2461l-2.4923-3.4721v7.3608Zm12.8764 0h-1.9384V11.1106h2.2154v7.0829l5.2613-7.0829h1.9384v10.8328h-2.2153v-7.083l-5.2614 7.083Zm12.3243 0h-2.216V11.1106h2.216v4.0275h4.846v-4.0275h2.215v10.8328h-2.215v-4.722h-4.846v4.722Zm9.138-5.4168c0-1.6665.554-2.9165 1.661-4.0275 1.108-1.1111 2.354-1.6666 4.015-1.6666 1.662 0 2.908.5555 4.016 1.6666 1.107 1.111 1.661 2.4998 1.661 4.0275 0 1.5277-.554 2.9166-1.661 4.0276-1.108 1.1111-2.354 1.6666-4.016 1.6666-1.661 0-2.907-.5555-4.015-1.6666-1.107-1.111-1.661-2.4999-1.661-4.0276Zm3.184 2.4999c.693.6944 1.385.9722 2.354.9722.969 0 1.8-.2778 2.354-.9722.692-.6944.969-1.5277.969-2.4999 0-.9721-.277-1.9443-.969-2.4998-.692-.6944-1.385-.9722-2.354-.9722-.969 0-1.8.2778-2.354.9722-.692.6944-.969 1.5277-.969 2.4998 0 .9722.277 1.8055.969 2.4999Zm14.677 2.9169h-4.708V11.1106h7.892v1.9443h-5.677v1.8055h2.493c1.246 0 2.215.2777 3.046.9721.692.6945 1.107 1.5277 1.107 2.6388 0 1.1111-.415 1.9444-1.107 2.6388-.693.5555-1.662.8333-3.046.8333Zm-2.354-5.2776v3.3332h2.215c.692 0 1.108-.1389 1.523-.4166.416-.2778.554-.6945.554-1.25s-.138-.9722-.554-1.2499c-.415-.2778-.831-.4167-1.523-.4167h-2.215Zm10.661 5.2776h-2.215V11.1106h4.707c1.108 0 2.077.2777 2.77.9721.692.5556.969 1.3889.969 2.361 0 .9722-.277 1.8055-.969 2.361-.693.5556-1.662.9722-2.77.9722h-2.492v4.1665Zm0-8.8885v2.6388h2.354c.554 0 .969-.1389 1.246-.4167.277-.2777.415-.5555.415-.9722 0-.4166-.138-.8332-.415-.9721-.277-.1389-.692-.4167-1.246-.4167h-2.354v.1389Zm10.244 8.8885h-2.215V11.1106h2.215v4.0275h4.846v-4.0275h2.216v10.8328h-2.216v-4.722h-4.846v4.722Zm11.077-.0002h-2.354l4.708-10.9717h2.077l4.707 10.9717h-2.353l-1.108-2.4999h-4.569l-1.108 2.4999Zm3.323-8.194-1.661 3.7498h3.184l-1.523-3.7498Zm9 8.4719c-.692 0-1.246-.1389-1.661-.2777V19.999c.415.1389.83.2778 1.246.2778.415 0 .83-.1389 1.107-.2778s.554-.5555.831-1.2499l-4.154-7.6385h2.493l2.769 5.4164 2.354-5.4164h2.353l-4.015 8.4718c-.692 1.6665-1.938 2.6387-3.323 2.6387Zm11.215-.2777h-2.216V11.1106h2.216v4.3053l4.015-4.3053h2.769l-4.569 4.9997 5.4 5.8331h-2.908l-4.707-4.9998v4.9998Zm10.8 0h-1.8V11.1106h2.215v7.0829l5.262-7.0829h1.938v10.8328h-2.215v-7.083l-5.4 7.083ZM78.0893 39.4419H75.874V28.6091h4.7076c1.1076 0 2.0768.2778 2.7691.9722.6923.5555.9692 1.3888.9692 2.361 0 .9722-.2769 1.8054-.9692 2.361-.6923.5555-1.6615.9721-2.7691.9721h-2.4923v4.1665Zm0-8.8884v2.6387h2.3538c.5538 0 .9692-.1389 1.2461-.4166.2769-.2778.4154-.5556.4154-.9722 0-.4166-.1385-.8333-.4154-.9722-.2769-.1389-.6923-.2777-1.2461-.2777h-2.3538Zm7.7545 3.4724c0-1.6666.5538-2.9165 1.6614-4.0276 1.1077-1.111 2.3538-1.6665 4.0153-1.6665 1.6615 0 2.9076.5555 4.0153 1.6665 1.1076 1.1111 1.6614 2.4999 1.6614 4.0276 0 1.5277-.5538 2.9165-1.6614 4.0276-1.1077 1.111-2.3538 1.6666-4.0153 1.6666-1.6615 0-2.9076-.5556-4.0153-1.6666-1.1076-1.1111-1.6614-2.4999-1.6614-4.0276Zm3.1845 2.4999c.6923.6944 1.3845.9722 2.3537.9722.9692 0 1.8-.2778 2.3538-.9722.6923-.6944.9692-1.5277.9692-2.4999 0-.9722-.2769-1.9443-.9692-2.4999-.6923-.6944-1.3846-.9721-2.3538-.9721-.9692 0-1.7999.2777-2.3537.9721-.6923.6944-.9692 1.5277-.9692 2.4999 0 .9722.4153 1.8055.9692 2.4999Zm15.6447 3.1939c-1.662 0-3.046-.5556-4.154-1.5277-1.1077-1.1111-1.6616-2.4999-1.6616-4.0276 0-1.6666.5539-3.0554 1.6616-4.0276 1.108-1.111 2.492-1.5277 4.154-1.5277 1.107 0 2.076.2778 2.907.6944v2.2221c-.831-.5555-1.8-.8333-2.907-.8333-.97 0-1.939.2778-2.631.9722-.692.6944-.969 1.5277-.969 2.4999 0 .9722.415 1.9443 1.107 2.4999.693.6944 1.523.9721 2.631.9721 1.246 0 2.215-.2777 3.046-.9721v2.2221c-.969.5555-1.938.8333-3.184.8333Zm10.384 0c-1.661 0-3.046-.5556-4.153-1.5277-1.108-1.1111-1.662-2.4999-1.662-4.0276 0-1.6666.554-3.0554 1.662-4.0276 1.107-1.111 2.492-1.5277 4.153-1.5277 1.108 0 2.077.2778 2.908.6944v2.2221c-.831-.5555-1.8-.8333-2.908-.8333-.969 0-1.938.2778-2.63.9722-.693.6944-.969 1.5277-.969 2.4999 0 .9722.415 1.9443 1.107 2.4999.692.6944 1.523.9721 2.631.9721 1.246 0 2.215-.2777 3.046-.9721v2.2221c-.969.5555-1.938.8333-3.185.8333Zm7.062-.2778h-1.938V28.6091h2.215v7.083l5.261-7.083h1.939v10.8328h-2.216v-7.083l-5.261 7.083Zm11.907 0h-1.938V28.6091h2.215v7.083l5.261-7.083h1.938v10.8328h-2.215v-7.083l-5.261 7.083ZM37.5205 25.8317c0-.1388.1385-.2777.2769-.2777h.2769c1.6615-.2778 3.323-1.9444 3.4615-3.7498 0-.9722-.2769-1.9444-.8308-2.4999-.1384-.1389-.1384-.4167.1385-.4167.1384 0 .1384-.1388.1384-.1388 5.3999-3.611 9.5536-10.69395 9.969-11.38836h.1384c1.523 1.24994 1.8 3.61096.4154 5.69416-.9692 1.3888-3.1845 3.0554-5.6768 4.4442v.8333c4.9845-1.111 7.7536-4.722 8.169-5.2775h.1385c1.1076 1.8055.5538 4.3053-1.2461 5.4164-1.5231.9722-4.1538 1.5277-7.1998 1.9443 0 .2778-.1385.5556-.1385.8333 4.846.6944 8.4459-1.2499 9.1382-1.5277h.1385c.4153 2.2221-.6923 4.1665-2.9076 4.5831-2.2154.4167-6.9229-.8333-6.9229-.8333-.1385.2778-.1385.5556-.2769.6944 3.1845 2.2222 7.6151 1.9444 8.3074 1.8055 0 0 .1385 0 .1385.1389.1384 2.7776-2.0769 3.472-4.0153 3.1943-1.6615-.2778-4.0152-1.6666-5.5383-3.1943-.1384.2778-.4153.4166-.5538.5555 1.523 3.1943 5.2614 4.5831 6.5075 4.722 0 0 .1384.1389 0 .1389-.8308 1.8055-2.6307 2.4999-4.7076 1.111-1.2461-.6944-2.6306-2.6387-3.4614-4.7219-.2769.1388-.4154.2777-.6923.4166.4154 3.8887 3.4615 6.5275 4.0153 6.9441v.2778c-.9692 1.5277-3.323 1.5277-4.5691-.5556-.6923-1.2499-1.2461-3.6109-1.3846-6.1108-.2769 0-.5538 0-.8307.1389-.1385 0-.2769-.1389-.2769-.2777v-2.9166h-.1385Zm-20.0746.0001c0-.1389-.1385-.2778-.2769-.2778h-.2769c-1.6615-.4166-3.323-1.9443-3.4614-3.7498 0-.9722.2769-1.9444.8307-2.4999.1384-.1389.1384-.4166-.1385-.4166-.1384 0-.1384-.1389-.1384-.1389C8.58467 15.1379 4.43095 8.05488 4.01558 7.36047h-.13846c-1.52303 1.11106-1.79994 3.61093-.41537 5.69413.9692 1.3888 3.18452 3.0554 5.67675 4.4443v.8332c-4.98446-1.111-7.75361-4.7219-8.168976-5.2775H.831067C-.276591 14.8601.277238 17.36 2.07718 18.471c1.52303.9722 4.15372 1.5277 7.19977 1.9444 0 .2777.13846.5555.13846.8333-4.846.6944-8.445886-1.25-9.138172-1.5277H.138781c-.415372 2.2221.692285 4.1664 2.907599 4.5831 2.21531.4166 6.92286-.8333 6.92286-.8333.13846.2777.13846.5555.27696.6944-3.18456 2.2221-7.61519 1.9443-8.30748 1.8054 0 0-.13846 0-.13846.1389-.13845 2.7777 2.07686 3.4721 4.01526 3.1943 1.66149-.2778 4.01526-1.6666 5.53828-3.1943.1385.2778.4154.4167.5538.5556-1.523 3.1942-5.26133 4.5831-6.50745 4.7219 0 0-.13846.1389 0 .1389.83075 1.8055 2.63069 2.4999 4.70755 1.1111 1.2461-.6944 2.6307-2.6388 3.4614-4.722.2769.1389.4154.2778.6923.4166-.4154 3.8887-3.4614 6.5275-4.0152 6.9441v.2778c.9692 1.5277 3.3229 1.5277 4.569-.5555.6923-1.25 1.2461-3.611 1.3846-6.1108.2769 0 .5538 0 .8307.1388.1385 0 .2769-.1388.2769-.2777v-2.9165h.1385Zm-.2777-16.94336h3.5999c3.0461 0 4.5691-1.94435 4.9845-3.61093h3.1845c.4154 1.66658 1.8 3.61093 4.9845 3.61093h3.7383s.6923-.83329.8308-1.24994c.5538-1.5277-.1385-2.36099-1.2462-2.36099L35.86 6.52745l-1.3846-1.24994c-1.1077 0-1.7999.69441-1.2461 2.36099.1384.13889.2769.55553.4154.69441-1.2462-.13888-3.0461-1.11105-3.323-3.0554 0 0 .9692-1.5277 1.2461-2.22211C32.2601.972173 31.1524 0 29.4909 0l-2.0768 2.49987L25.1988 0c-1.6615 0-2.7692.972173-1.9384 3.19428.2769.69441 1.2461 2.22211 1.2461 2.22211-.4154 1.94435-2.0769 2.77764-3.323 3.0554.1385-.27776.4154-.55552.4154-.6944.5538-1.52771-.1385-2.361-1.2461-2.361l-1.3846 1.24994-1.3846-1.24994c-1.1076 0-1.7999.69441-1.2461 2.361.1385.27776.8307 1.11105.8307 1.11105Zm5.9552 10.41626h3.4614c.1385 0 .277-.1389.277-.2777-.6923-2.7777-2.0769-4.9998-3.5999-6.2497 1.1076-.5556 2.3537-2.0833 2.3537-2.91655-3.7383 1.38885-10.9381-.69441-11.6304 2.36095-.1384.6945.1385 1.6666.5539 1.9444 0-.2778.4153-.9722 1.3845-1.1111 3.323-.5555 6.3691 2.7777 6.9229 5.972.1385.1388.1385.2777.2769.2777Zm17.7219-7.083c-.6923-3.19424-8.0305-1.111-11.6304-2.36095-.1385.97215 1.1076 2.36095 2.3537 2.91655-1.3845 1.2499-2.7691 3.472-3.5998 6.2497 0 .1388.1384.2777.2769.2777h3.4614c.1385 0 .2769-.1389.2769-.1389.5538-3.1942 3.5999-6.3885 6.9229-5.9719.9692.1389 1.3845.8333 1.3845 1.1111.277-.4167.5539-1.3888.5539-2.0833Zm-9.139 11.3879c-1.9384-.5555-4.2922-.5555-4.2922-.5555s-2.3538 0-4.2922.5555c-2.0768.6945-4.1537-.4166-4.846-.8332-.1384-.1389-.2769 0-.2769.1388.1385.9722.9692 3.1943 4.2922 4.0276 3.1845.6944 4.5691 4.3053 4.9845 5.833 0 .1389.2769.1389.4153 0 .4154-1.5277 1.9384-4.9997 4.9845-5.833 3.323-.8333 4.1537-3.0554 4.2922-4.0276 0-.1388-.1385-.2777-.277-.1388-.8307.5555-2.7691 1.5277-4.9844.8332Z"/>
    <path d="M30.5986 29.9979c.1385.1389.4154.2778.6923.2778.6923 0 1.2461-.5555 1.2461-1.2499 0-.1389 0-.2778-.1384-.4167-.6923.2778-1.3846.8333-1.8 1.3888Z"/>
    <path d="M33.7837 28.0539c.1385.2777.2769.5555.2769.9721 0 1.5277-1.2461 2.7777-2.7691 2.7777-.5538 0-1.1077-.1389-1.523-.5556-.277.5556-.5539 1.1111-.6923 1.5277.6923.4167 1.3845.6945 2.2153.6945 2.3538 0 4.2922-1.9444 4.2922-4.3054 0-.5555-.1385-1.111-.4154-1.6666-.2769.2778-.8308.4167-1.3846.5556Zm-8.7236 3.333c-.4154.2778-.9692.4166-1.523.4166-1.5231 0-2.7692-1.2499-2.7692-2.7776 0-.2778.1385-.6944.2769-.9722-.5538-.1389-1.1076-.4166-1.523-.6944-.2769.5555-.4154 1.1111-.4154 1.6666 0 2.361 1.9384 4.3053 4.2922 4.3053.8308 0 1.523-.2777 2.2153-.6944 0-.2777-.2769-.6944-.5538-1.2499Z"/>
    <path d="M22.4295 28.6091c0 .1389-.1385.2778-.1385.4167 0 .6944.5538 1.2499 1.2461 1.2499.2769 0 .5539-.1389.6923-.2778-.4154-.5555-.9692-1.111-1.7999-1.3888Z"/>
    <path fill-rule="evenodd" clip-rule="evenodd" d="M48.3219 4.02787c.1384 0 .1384 0 0 0-1.523-.8333-1.1077-1.80547-1.9384-2.63876-.9692-.833287-2.3538-.833288-2.6307-.972169-1.6615-.138882-2.0769.138881-2.2153.277763-.2769.277764-.8308.833286-1.1077 1.944346-.2769 1.11105-.1384 1.5277.1385 1.66658h.1384c.1385.13888.8308-.13888.8308-.13888.4154.13888 1.1076.41664.9692 1.94434-.1385 1.94435-2.9076 2.361-3.7384 2.49988l-.1384.27776c1.2461 0 4.846-.41664 5.2614-2.22211.5538-1.80546-.277-2.49987-.277-2.49987-.2769-.27777-1.2461-.27777-1.7999-.13888 0 0-.4154-.41665 0-1.38882.5538-1.666582.8307-1.666582 2.0769-1.5277.1384 0 .2769 0 .4153.13888.8308.55553.6923 1.66658.9692 2.49987.5539 2.49988 1.9384 2.49988 2.9076 2.77764.1385 0 .1385-.13888.1385-.13888-.6923-.55553-1.523-1.38882-1.3846-2.22211 0 0 .1385-.13888.1385 0 0-.13888.5538.13888 1.2461-.13888ZM6.36947 4.02732c-.13846 0-.13846 0 0 0 1.38457-.83329.9692-1.66658 1.9384-2.49987.9692-.833291 2.35373-.833291 2.63073-.972173C12.6.416395 13.0154.694159 13.1539.833041c.2769.277759.8307.833289 1.1076 1.944339.277 1.11106.1385 1.5277-.1384 1.66659h-.1385c-.1384 0-.8307-.27777-.8307-.27777-.4154.13888-1.1077.41665-.9692 1.94435.2769 2.08323 3.046 2.49987 3.7383 2.49987l.1385.27777c-1.2461 0-4.846-.41665-5.2614-2.22211-.5538-1.80547.2769-2.49988.2769-2.49988.2769-.27776 1.2461-.27776 1.8-.13888 0 0 .4153-.41665 0-1.38882C12.4616.833041 12.1847.971922 10.9386.971922c-.1385 0-.277 0-.4154.138878-.83076.55553-.6923 1.66658-.83076 2.36099-.55383 2.49988-1.9384 2.49988-2.9076 2.77764-.13846 0-.13846-.13888-.13846-.13888.69229-.55553 1.52303-1.38882 1.38457-2.22211 0 0-.13845-.13888-.13845 0-.13846.13888-.83075.41664-1.52303.13888Z"/>
    <path d="m43.199 41.2479-1.6615 1.3888-1.6614-1.2499c-.6923.2778-1.1077.9722-1.2462 1.6666-.9692.1389-3.5998-.4167-3.3229-.8333 2.9076-4.0276.6923-6.5275-1.9384-6.3886-.4154.5556-1.3846 1.3888-2.3538 1.9444-2.2153 1.111-3.1845 1.9443-3.5999 2.2221-.2769-.2778-1.3846-1.1111-3.5999-2.2221-1.1076-.5556-1.9384-1.25-2.3538-1.9444-2.6306 0-4.7075 2.361-1.7999 6.3886.2769.4166-2.4922.9722-3.7383.8333-.277-.4167-.8308-.5555-1.3846-.5555-.2769 0-.4154 0-.6923.1388l-5.12293-4.8608v-.1389c.27691-.5555-.13846-1.1111-.41537-1.1111.27691-.4166.27691-2.0832-1.52303-2.4998 0 .2777.13846 1.111.13846 1.111s-1.38458-.6944-2.07686-.1389c-.55383.6944.27691 2.0833.27691 2.0833H4.01562c.55383 1.8054 2.21532 1.6665 2.63069 1.2499 0 .2778.55383.6944 1.10766.4166l.27691-.1388 4.98442 4.7219c-.2769.2778-.2769.6945-.2769 1.25.1385.6944.6923 1.2499 1.3846 1.3888.5538.1389.9692 0 1.3846-.2778l1.2461 1.25c.1385.1389.2769.1389.4154.1389.2769 0 .5538-.2778.5538-.5556 0-.1389-.1385-.2777-.1385-.2777l-1.3845-1.25c1.1076-.6944 3.046-1.2499 4.7075-1.2499.2769 0 .4154-.2778.2769-.5555-.6923-1.8055.8308-3.1943 2.4923-2.0833.4153.2778.6923.5556 1.1076 1.3889-1.523.6944-4.4306 3.6109-4.5691 4.3053.5539 1.8055 2.0769 2.4999 2.0769 2.4999-.4154-.8333-.2769-2.6388 2.2153-3.8887-1.523 1.5277-2.0769 2.9165-1.6615 4.1664.4154 1.1111 1.523 1.6666 2.4923 1.6666-.6923-1.9443-.4154-3.7498.9692-5.1386-.5539 1.5277-1.3846 6.2497.9691 7.083 2.2154-.8333 1.5231-5.5553.9693-7.083 1.2461 1.3888 1.523 3.1943.9692 5.1386.8307 0 2.0768-.5555 2.4922-1.6666.4154-1.2499-.1385-2.6387-1.6615-4.1664 2.4922 1.2499 2.6307 3.0554 2.2153 3.8887 0 0 1.6615-.5556 2.0769-2.4999-.1385-.6944-2.9076-3.4721-4.4307-4.1665.4154-.8333.6923-1.111 1.1077-1.3888 1.6615-1.111 3.323.2778 2.4922 2.0832-.1384.2778 0 .5556.2769.5556 1.9384 0 4.1538.6944 5.123 1.6666.5538.8332 1.6614 1.3888 2.9076 1.3888 1.3845-.1389 2.4922-1.25 2.6306-2.4999.277-1.5277-.4153-2.6388-1.2461-3.1943Z"/>
    <path d="m42.645 40.2759-1.1077-1.25-1.1076 1.25 1.1076.9722 1.1077-.9722Z"/>
  </g>
</svg>