<svg xmlns="http://www.w3.org/2000/svg" xmlns:xlink="http://www.w3.org/1999/xlink" width="1920" height="651" fill="none">
  <defs>
    <path id="b" fill="#737373" d="m1344.42 291.743.37 2.123-1.65.318-.31-2.175 1.59-.266Z" opacity=".6"/>
    <path id="c" fill="#737373" d="m1550.34 432.779-.9 1.38-205.93-139.444.9-1.38 205.93 139.444Z" opacity=".6"/>
    <path id="d" fill="#737373" d="m1344.63 293.548-1.33.955-167.99-246.0435 1.38-.902 167.94 245.9905Z" opacity=".6"/>
    <path id="e" fill="#737373" d="m1344.2 294.821-256.49 78.371-.48-1.539 256.49-78.424.48 1.592Z" opacity=".6"/>
    <path id="f" fill="#737373" d="m1344.58 293.441-1.22 1.168-94.24-97.898 1.17-1.167 94.29 97.897Z" opacity=".6"/>
    <path id="g" fill="#737373" d="m1589.64 178.796-246.01 114.507.7 1.491 246.01-114.507-.7-1.491Z" opacity=".6"/>
    <path id="h" fill="#737373" d="M1343.41 290.576c1.91-.319 3.71.955 4.03 2.865.32 1.91-.95 3.714-2.86 4.033-1.91.318-3.72-.956-4.04-2.866-.31-1.91.96-3.714 2.87-4.032Z"/>
    <path id="i" fill="#737373" d="M1343.04 288.4c1.91-.318 3.71 1.008 4.03 2.865.32 1.911-.96 3.715-2.87 4.033-1.91.318-3.71-.955-4.03-2.865-.32-1.91.95-3.715 2.87-4.033Z"/>
    <path id="j" fill="#737373" d="M1343.41 290.576c1.91-.319 3.71.955 4.03 2.865.32 1.91-.95 3.714-2.86 4.033-1.91.318-3.72-.956-4.04-2.866-.31-1.91.96-3.714 2.87-4.032Zm205.88 139.444c1.91-.319 3.71.955 4.03 2.865.32 1.91-.95 3.714-2.86 4.032-1.91.319-3.72-.955-3.98-2.865-.32-1.91.95-3.714 2.86-4.032h-.05Z"/>
    <path id="k" fill="#737373" d="M1487.9 155.112c1.91-.319 3.71.955 4.03 2.865.32 1.91-.96 3.714-2.87 4.033-1.91.318-3.71-.956-4.03-2.866-.32-1.91.96-3.714 2.87-3.979v-.053Zm-144.49 135.464c1.91-.319 3.71.955 4.03 2.865.32 1.91-.95 3.714-2.86 4.033-1.91.318-3.72-.956-4.04-2.866-.31-1.91.96-3.714 2.87-4.032Z"/>
    <path id="l" fill="#737373" d="M1343.41 290.576c1.91-.319 3.71.955 4.03 2.865.32 1.91-.95 3.714-2.86 4.033-1.91.318-3.72-.956-4.04-2.866-.31-1.91.96-3.714 2.87-4.032ZM1175.42 44.5859c1.91-.3184 3.71.955 4.03 2.8652.32 1.9102-.96 3.7143-2.87 4.0327-1.91.3183-3.71-.9551-4.03-2.8653-.32-1.9102.96-3.7143 2.87-4.0326Z"/>
    <path id="m" fill="#737373" d="M1343.41 290.576c1.91-.319 3.71.955 4.03 2.865.32 1.91-.95 3.714-2.86 4.033-1.91.318-3.72-.956-4.04-2.866-.31-1.91.96-3.714 2.87-4.032ZM1086.91 369c1.91-.319 3.72.955 4.04 2.865.31 1.91-.96 3.714-2.87 4.032-1.91.319-3.71-.955-4.03-2.865-.32-1.91.95-3.714 2.86-4.032Z"/>
    <path id="n" fill="#737373" d="M1249.12 192.678c1.91-.318 3.72.955 4.03 2.866.32 1.91-.95 3.714-2.86 4.032-1.91.319-3.71-.955-4.03-2.865-.32-1.91.95-3.714 2.86-4.033Zm94.29 97.898c1.91-.319 3.71.955 4.03 2.865.32 1.91-.95 3.714-2.86 4.033-1.91.318-3.72-.956-4.04-2.866-.31-1.91.96-3.714 2.87-4.032Z"/>
    <path id="o" fill="#737373" d="M1589.4 176.07c1.91-.318 3.71.955 4.03 2.866.32 1.91-.95 3.714-2.86 4.032-1.91.319-3.72-.955-3.98-2.865-.32-1.91.95-3.714 2.86-4.033h-.05Zm-245.99 114.506c1.91-.319 3.71.955 4.03 2.865.32 1.91-.95 3.714-2.86 4.033-1.91.318-3.72-.956-4.04-2.866-.31-1.91.96-3.714 2.87-4.032Z"/>
    <path id="p" fill="#737373" d="M1277.29 482.019c1.92-.318 3.72.955 4.04 2.866.32 1.91-.96 3.714-2.87 3.979-1.91.318-3.71-.955-4.03-2.865-.32-1.91.95-3.714 2.86-4.033v.053Zm66.12-191.443c1.91-.319 3.71.955 4.03 2.865.32 1.91-.95 3.714-2.86 4.033-1.91.318-3.72-.956-4.04-2.866-.31-1.91.96-3.714 2.87-4.032Z"/>
  </defs>
  <mask id="a" width="1920" height="651" x="0" y="0" maskUnits="userSpaceOnUse" style="mask-type:luminance">
    <path fill="#fff" d="M1919.61 0H0v651h1919.61V0Z"/>
  </mask>
  <g mask="url(#a)" style="mix-blend-mode:multiply">
    <use xlink:href="#b" opacity=".6"/>
    <use xlink:href="#b" opacity=".6"/>
    <path fill="#737373" d="m1344.16 291.171-.94 1.356 206.19 141.704.93-1.355-206.18-141.705Z" opacity=".6"/>
    <use xlink:href="#c" opacity=".6"/>
    <use xlink:href="#c" opacity=".6"/>
    <path fill="#737373" d="m1550.66 433.257-1.59.371-61.39-274.908 1.59-.319 61.39 274.856Z" opacity=".6"/>
    <path fill="#737373" d="m1489 159.144-144.85 133.342-1.12-1.22 144.86-133.289 1.11 1.167Z" opacity=".6"/>
    <path fill="#737373" d="m1489.01 159.144-144.49 135.464-1.11-1.167 144.48-135.464 1.12 1.167Z" opacity=".6"/>
    <path fill="#737373" d="m1489.01 159.144-144.49 135.464-1.11-1.167 144.48-135.464 1.12 1.167ZM1176.66 47.5171l-1.35.9316 167.58 243.8323 1.35-.932-167.58-243.8319Z" opacity=".6"/>
    <use xlink:href="#d" opacity=".6"/>
    <use xlink:href="#d" opacity=".6"/>
    <path fill="#737373" d="m1343.88 292.645-256.12 80.547-.53-1.539 256.12-80.599.53 1.591Z" opacity=".6"/>
    <use xlink:href="#e" opacity=".6"/>
    <use xlink:href="#e" opacity=".6"/>
    <path fill="#737373" d="M1250.29 196.711 1088.08 372.98l-1.17-1.115 162.16-176.268 1.22 1.114Z" opacity=".6"/>
    <path fill="#737373" d="m1250.45 195.756-1.49.743-73.7-148.0926 1.49-.7429 73.7 148.0925Z" opacity=".6"/>
    <path fill="#737373" d="m1488.32 157.765.26 1.592-238.77 37.567-.27-1.592 238.78-37.567Z" opacity=".6"/>
    <path fill="#737373" d="m1344.21 291.266-1.17 1.167-93.92-95.722 1.17-1.167 93.92 95.722Z" opacity=".6"/>
    <use xlink:href="#f" opacity=".6"/>
    <use xlink:href="#f" opacity=".6"/>
    <path fill="#737373" d="M1414.47-14.6767 1249.03 195.566l1.29 1.017 165.44-210.2425-1.29-1.0172Z" opacity=".6"/>
    <path fill="#737373" d="m1414.94-14.8448-239.16 62.1205.41 1.592 239.17-62.1204-.42-1.5921Z" opacity=".6"/>
    <path fill="#737373" d="m1415.88-14.4958-1.52.643 73.32 172.6468 1.51-.643-73.31-172.6468Z" opacity=".6"/>
    <path fill="#737373" d="m1414.36-14.3129-71.54 305.9739 1.6.375 71.54-305.9744-1.6-.3745Z" opacity=".6"/>
    <path fill="#737373" d="m1415.95-13.9404-71.16 308.1774-1.59-.372 71.16-308.1768 1.59.3714Z" opacity=".6"/>
    <path fill="#737373" d="m1415.95-13.9404-71.16 308.1774-1.59-.372 71.16-308.1768 1.59.3714Zm452.21 72.6688L1589.64 178.675l.65 1.51 278.52-119.9459-.65-1.5107Z" opacity=".6"/>
    <path fill="#737373" d="m1416.44-15.1832-1.23 1.094 173.52 194.8282 1.23-1.094-173.52-194.8282Z" opacity=".6"/>
    <path fill="#737373" d="m1590.14 178.724-.32 1.592-101.5-20.959.32-1.592 101.5 20.959Z" opacity=".6"/>
    <path fill="#737373" d="m1590.78 179.626-40.06 253.949-1.65-.265 40.12-253.949 1.59.265Z" opacity=".6"/>
    <path fill="#737373" d="M1589.67 178.87 1343.3 291.199l.68 1.497 246.37-112.329-.68-1.497Z" opacity=".6"/>
    <use xlink:href="#g" opacity=".6"/>
    <use xlink:href="#g" opacity=".6"/>
    <path fill="#737373" d="m1712.34 137.655-122.1 42.607-.53-1.538 122.1-42.608.53 1.539Z" opacity=".6"/>
    <path fill="#737373" d="m1868.87 60.3449-156.42 77.2571-.75-1.433 156.43-77.3097.74 1.4856Z" opacity=".6"/>
    <path fill="#737373" d="m1711.97 136.063.21 1.645-223.65 21.702-.16-1.698 223.6-21.649Z" opacity=".6"/>
    <path fill="#737373" d="m1712.87 136.699-1.59.425-58.53-217.4965 1.6-.4245 58.52 217.496Z" opacity=".6"/>
    <path fill="#737373" d="m1652.8-80.7405-63.59 260.0835 1.59.39 63.6-260.0828-1.6-.3907Z" opacity=".6"/>
    <path fill="#737373" d="m1868.92 58.912-.9 1.3796-214.9-140.1867.9-1.3796 214.9 140.1867Z" opacity=".6"/>
    <path fill="#737373" d="M1652.93-81.0587 1487.82 158.099l1.35.934 165.11-239.1572-1.35-.9345Zm58.33 217.9047-11.56 264.787 1.65.072 11.56-264.787-1.65-.072Z" opacity=".6"/>
    <path fill="#737373" d="m1701.25 401.314-1.49.742-110.52-222.165 1.48-.743 110.53 222.166Z" opacity=".6"/>
    <path fill="#737373" d="m1701.14 401.155-1.22 1.061-212.08-243.125 1.22-1.061 212.08 243.125Z" opacity=".6"/>
    <path fill="#737373" d="m1700.34 400.752-150.61 31.794.34 1.609 150.61-31.793-.34-1.61ZM1250.53 196.09l-1.64.16 28.17 289.352 1.64-.159-28.17-289.353Z" opacity=".6"/>
    <path fill="#737373" d="m1278.3 484.778-.85 1.433-190.38-113.073.85-1.432 190.38 113.072Z" opacity=".6"/>
    <path fill="#737373" d="m1549.72 432.594-271.99 52.033.31 1.615 271.99-52.033-.31-1.615Z" opacity=".6"/>
    <path fill="#737373" d="m1344.41 292.115-65.74 193.618-1.59-.53 65.74-193.619 1.59.531Z" opacity=".6"/>
    <path fill="#737373" d="m1343.26 293.813-66.11 191.441 1.56.537 66.1-191.441-1.55-.537Z" opacity=".6"/>
    <path fill="#737373" d="m1343.26 293.813-66.11 191.441 1.56.537 66.1-191.441-1.55-.537Zm53.64-419.977L1176.53 48.6715l-1.06-1.3265 220.36-174.835 1.07 1.326Z" opacity=".6"/>
    <path fill="#737373" d="m1489.28 158.295-1.6.531-92.11-285.415 1.59-.477 92.12 285.361Z" opacity=".6"/>
    <use xlink:href="#h"/>
    <use xlink:href="#i"/>
    <use xlink:href="#h"/>
    <use xlink:href="#i"/>
    <path fill="#737373" d="M1343.04 288.4c1.91-.318 3.71 1.008 4.03 2.865.32 1.911-.96 3.715-2.87 4.033-1.91.318-3.71-.955-4.03-2.865-.32-1.91.95-3.715 2.87-4.033Zm206.25 141.62c1.91-.319 3.71.955 4.03 2.865.32 1.91-.95 3.714-2.86 4.032-1.91.319-3.72-.955-3.98-2.865-.32-1.91.95-3.714 2.86-4.032h-.05Z"/>
    <use xlink:href="#j"/>
    <use xlink:href="#j"/>
    <path fill="#737373" d="M1549.29 430.02c1.91-.319 3.71.955 4.03 2.865.32 1.91-.95 3.714-2.86 4.032-1.91.319-3.72-.955-3.98-2.865-.32-1.91.95-3.714 2.86-4.032h-.05Zm-61.39-274.908c1.91-.319 3.71.955 4.03 2.865.32 1.91-.96 3.714-2.87 4.033-1.91.318-3.71-.956-4.03-2.866-.32-1.91.96-3.714 2.87-3.979v-.053ZM1343.04 288.4c1.91-.318 3.71 1.008 4.03 2.865.32 1.911-.96 3.715-2.87 4.033-1.91.318-3.71-.955-4.03-2.865-.32-1.91.95-3.715 2.87-4.033Z"/>
    <use xlink:href="#k"/>
    <use xlink:href="#k"/>
    <path fill="#737373" d="M1487.9 155.112c1.91-.319 3.71.955 4.03 2.865.32 1.91-.96 3.714-2.87 4.033-1.91.318-3.71-.956-4.03-2.866-.32-1.91.96-3.714 2.87-3.979v-.053ZM1343.04 288.4c1.91-.318 3.71 1.008 4.03 2.865.32 1.911-.96 3.715-2.87 4.033-1.91.318-3.71-.955-4.03-2.865-.32-1.91.95-3.715 2.87-4.033ZM1175.42 44.5859c1.91-.3184 3.71.955 4.03 2.8652.32 1.9102-.96 3.7143-2.87 4.0327-1.91.3183-3.71-.9551-4.03-2.8653-.32-1.9102.96-3.7143 2.87-4.0326Z"/>
    <use xlink:href="#l"/>
    <use xlink:href="#l"/>
    <path fill="#737373" d="M1343.04 288.4c1.91-.318 3.71 1.008 4.03 2.865.32 1.911-.96 3.715-2.87 4.033-1.91.318-3.71-.955-4.03-2.865-.32-1.91.95-3.715 2.87-4.033ZM1086.91 369c1.91-.319 3.72.955 4.04 2.865.31 1.91-.96 3.714-2.87 4.032-1.91.319-3.71-.955-4.03-2.865-.32-1.91.95-3.714 2.86-4.032Z"/>
    <use xlink:href="#m"/>
    <use xlink:href="#m"/>
    <path fill="#737373" d="M1086.91 369c1.91-.319 3.72.955 4.04 2.865.31 1.91-.96 3.714-2.87 4.032-1.91.319-3.71-.955-4.03-2.865-.32-1.91.95-3.714 2.86-4.032Zm162.21-176.322c1.91-.318 3.72.955 4.03 2.866.32 1.91-.95 3.714-2.86 4.032-1.91.319-3.71-.955-4.03-2.865-.32-1.91.95-3.714 2.86-4.033Zm-73.7-148.0921c1.91-.3184 3.71.955 4.03 2.8652.32 1.9102-.96 3.7143-2.87 4.0327-1.91.3183-3.71-.9551-4.03-2.8653-.32-1.9102.96-3.7143 2.87-4.0326Z"/>
    <path fill="#737373" d="M1249.12 192.678c1.91-.318 3.72.955 4.03 2.866.32 1.91-.95 3.714-2.86 4.032-1.91.319-3.71-.955-4.03-2.865-.32-1.91.95-3.714 2.86-4.033Zm238.78-37.566c1.91-.319 3.71.955 4.03 2.865.32 1.91-.96 3.714-2.87 4.033-1.91.318-3.71-.956-4.03-2.866-.32-1.91.96-3.714 2.87-3.979v-.053Z"/>
    <path fill="#737373" d="M1249.12 192.678c1.91-.318 3.72.955 4.03 2.866.32 1.91-.95 3.714-2.86 4.032-1.91.319-3.71-.955-4.03-2.865-.32-1.91.95-3.714 2.86-4.033Zm93.92 95.722c1.91-.318 3.71 1.008 4.03 2.865.32 1.911-.96 3.715-2.87 4.033-1.91.318-3.71-.955-4.03-2.865-.32-1.91.95-3.715 2.87-4.033Z"/>
    <use xlink:href="#n"/>
    <use xlink:href="#n"/>
    <path fill="#737373" d="M1249.12 192.678c1.91-.318 3.72.955 4.03 2.866.32 1.91-.95 3.714-2.86 4.032-1.91.319-3.71-.955-4.03-2.865-.32-1.91.95-3.714 2.86-4.033Z"/>
    <path fill="#737373" d="M1249.12 192.678c1.91-.318 3.72.955 4.03 2.866.32 1.91-.95 3.714-2.86 4.032-1.91.319-3.71-.955-4.03-2.865-.32-1.91.95-3.714 2.86-4.033Zm-73.7-148.0921c1.91-.3184 3.71.955 4.03 2.8652.32 1.9102-.96 3.7143-2.87 4.0327-1.91.3183-3.71-.9551-4.03-2.8653-.32-1.9102.96-3.7143 2.87-4.0326ZM1487.9 155.112c1.91-.319 3.71.955 4.03 2.865.32 1.91-.96 3.714-2.87 4.033-1.91.318-3.71-.956-4.03-2.866-.32-1.91.96-3.714 2.87-3.979v-.053ZM1343.04 288.4c1.91-.318 3.71 1.008 4.03 2.865.32 1.911-.96 3.715-2.87 4.033-1.91.318-3.71-.955-4.03-2.865-.32-1.91.95-3.715 2.87-4.033Z"/>
    <use xlink:href="#h"/>
    <path fill="#737373" d="M1343.41 290.576c1.91-.319 3.71.955 4.03 2.865.32 1.91-.95 3.714-2.86 4.033-1.91.318-3.72-.956-4.04-2.866-.31-1.91.96-3.714 2.87-4.032Zm524.51-234.4229c1.91-.3184 3.71.955 4.03 2.8652.32 1.9102-.95 3.7143-2.86 4.0327-1.91.3183-3.72-.9551-3.98-2.8653-.32-1.9102.95-3.7143 2.86-4.0326h-.05ZM1589.4 176.07c1.91-.318 3.71.955 4.03 2.866.32 1.91-.95 3.714-2.86 4.032-1.91.319-3.72-.955-3.98-2.865-.32-1.91.95-3.714 2.86-4.033h-.05Z"/>
    <path fill="#737373" d="M1589.4 176.07c1.91-.318 3.71.955 4.03 2.866.32 1.91-.95 3.714-2.86 4.032-1.91.319-3.72-.955-3.98-2.865-.32-1.91.95-3.714 2.86-4.033h-.05Zm-101.5-20.958c1.91-.319 3.71.955 4.03 2.865.32 1.91-.96 3.714-2.87 4.033-1.91.318-3.71-.956-4.03-2.866-.32-1.91.96-3.714 2.87-3.979v-.053Z"/>
    <path fill="#737373" d="M1589.4 176.07c1.91-.318 3.71.955 4.03 2.866.32 1.91-.95 3.714-2.86 4.032-1.91.319-3.72-.955-3.98-2.865-.32-1.91.95-3.714 2.86-4.033h-.05Zm-40.11 253.95c1.91-.319 3.71.955 4.03 2.865.32 1.91-.95 3.714-2.86 4.032-1.91.319-3.72-.955-3.98-2.865-.32-1.91.95-3.714 2.86-4.032h-.05Z"/>
    <path fill="#737373" d="M1589.4 176.07c1.91-.318 3.71.955 4.03 2.866.32 1.91-.95 3.714-2.86 4.032-1.91.319-3.72-.955-3.98-2.865-.32-1.91.95-3.714 2.86-4.033h-.05ZM1343.04 288.4c1.91-.318 3.71 1.008 4.03 2.865.32 1.911-.96 3.715-2.87 4.033-1.91.318-3.71-.955-4.03-2.865-.32-1.91.95-3.715 2.87-4.033Z"/>
    <use xlink:href="#o"/>
    <use xlink:href="#o"/>
    <path fill="#737373" d="M1589.4 176.07c1.91-.318 3.71.955 4.03 2.866.32 1.91-.95 3.714-2.86 4.032-1.91.319-3.72-.955-3.98-2.865-.32-1.91.95-3.714 2.86-4.033h-.05Z"/>
    <path fill="#737373" d="M1589.4 176.07c1.91-.318 3.71.955 4.03 2.866.32 1.91-.95 3.714-2.86 4.032-1.91.319-3.72-.955-3.98-2.865-.32-1.91.95-3.714 2.86-4.033h-.05Zm122.09-42.607c1.91-.319 3.72.955 4.04 2.865.31 1.91-.96 3.714-2.87 4.033-1.91.318-3.71-.955-4.03-2.866-.32-1.91.95-3.714 2.86-4.032Zm156.43-77.3099c1.91-.3184 3.71.955 4.03 2.8652.32 1.9102-.95 3.7143-2.86 4.0327-1.91.3183-3.72-.9551-3.98-2.8653-.32-1.9102.95-3.7143 2.86-4.0326h-.05Z"/>
    <path fill="#737373" d="M1711.49 133.463c1.91-.319 3.72.955 4.04 2.865.31 1.91-.96 3.714-2.87 4.033-1.91.318-3.71-.955-4.03-2.866-.32-1.91.95-3.714 2.86-4.032Zm-223.59 21.649c1.91-.319 3.71.955 4.03 2.865.32 1.91-.96 3.714-2.87 4.033-1.91.318-3.71-.956-4.03-2.866-.32-1.91.96-3.714 2.87-3.979v-.053Z"/>
    <path fill="#737373" d="M1711.49 133.463c1.91-.319 3.72.955 4.04 2.865.31 1.91-.96 3.714-2.87 4.033-1.91.318-3.71-.955-4.03-2.866-.32-1.91.95-3.714 2.86-4.032Z"/>
    <path fill="#737373" d="M1711.49 133.463c1.91-.319 3.72.955 4.04 2.865.31 1.91-.96 3.714-2.87 4.033-1.91.318-3.71-.955-4.03-2.866-.32-1.91.95-3.714 2.86-4.032ZM1589.4 176.07c1.91-.318 3.71.955 4.03 2.866.32 1.91-.95 3.714-2.86 4.032-1.91.319-3.72-.955-3.98-2.865-.32-1.91.95-3.714 2.86-4.033h-.05Zm278.52-119.9169c1.91-.3184 3.71.955 4.03 2.8652.32 1.9102-.95 3.7143-2.86 4.0327-1.91.3183-3.72-.9551-3.98-2.8653-.32-1.9102.95-3.7143 2.86-4.0326h-.05ZM1487.9 155.112c1.91-.319 3.71.955 4.03 2.865.32 1.91-.96 3.714-2.87 4.033-1.91.318-3.71-.956-4.03-2.866-.32-1.91.96-3.714 2.87-3.979v-.053Z"/>
    <path fill="#737373" d="M1711.49 133.463c1.91-.319 3.72.955 4.04 2.865.31 1.91-.96 3.714-2.87 4.033-1.91.318-3.71-.955-4.03-2.866-.32-1.91.95-3.714 2.86-4.032Zm-11.56 264.773c1.91-.318 3.71.955 4.03 2.865.32 1.911-.95 3.715-2.86 4.033-1.92.318-3.72-.955-4.04-2.865-.32-1.91.96-3.715 2.87-4.033ZM1589.4 176.07c1.91-.318 3.71.955 4.03 2.866.32 1.91-.95 3.714-2.86 4.032-1.91.319-3.72-.955-3.98-2.865-.32-1.91.95-3.714 2.86-4.033h-.05Z"/>
    <path fill="#737373" d="M1699.93 398.236c1.91-.318 3.71.955 4.03 2.865.32 1.911-.95 3.715-2.86 4.033-1.92.318-3.72-.955-4.04-2.865-.32-1.91.96-3.715 2.87-4.033ZM1487.9 155.112c1.91-.319 3.71.955 4.03 2.865.32 1.91-.96 3.714-2.87 4.033-1.91.318-3.71-.956-4.03-2.866-.32-1.91.96-3.714 2.87-3.979v-.053Z"/>
    <path fill="#737373" d="M1699.93 398.236c1.91-.318 3.71.955 4.03 2.865.32 1.911-.95 3.715-2.86 4.033-1.92.318-3.72-.955-4.04-2.865-.32-1.91.96-3.715 2.87-4.033Zm-150.64 31.784c1.91-.319 3.71.955 4.03 2.865.32 1.91-.95 3.714-2.86 4.032-1.91.319-3.72-.955-3.98-2.865-.32-1.91.95-3.714 2.86-4.032h-.05Z"/>
    <path fill="#737373" d="M1699.93 398.236c1.91-.318 3.71.955 4.03 2.865.32 1.911-.95 3.715-2.86 4.033-1.92.318-3.72-.955-4.04-2.865-.32-1.91.96-3.715 2.87-4.033Zm-450.81-205.558c1.91-.318 3.72.955 4.03 2.866.32 1.91-.95 3.714-2.86 4.032-1.91.319-3.71-.955-4.03-2.865-.32-1.91.95-3.714 2.86-4.033Zm28.17 289.341c1.92-.318 3.72.955 4.04 2.866.32 1.91-.96 3.714-2.87 3.979-1.91.318-3.71-.955-4.03-2.865-.32-1.91.95-3.714 2.86-4.033v.053ZM1086.91 369c1.91-.319 3.72.955 4.04 2.865.31 1.91-.96 3.714-2.87 4.032-1.91.319-3.71-.955-4.03-2.865-.32-1.91.95-3.714 2.86-4.032Z"/>
    <path fill="#737373" d="M1277.29 482.019c1.92-.318 3.72.955 4.04 2.866.32 1.91-.96 3.714-2.87 3.979-1.91.318-3.71-.955-4.03-2.865-.32-1.91.95-3.714 2.86-4.033v.053Zm272-51.999c1.91-.319 3.71.955 4.03 2.865.32 1.91-.95 3.714-2.86 4.032-1.91.319-3.72-.955-3.98-2.865-.32-1.91.95-3.714 2.86-4.032h-.05Z"/>
    <path fill="#737373" d="M1277.29 482.019c1.92-.318 3.72.955 4.04 2.866.32 1.91-.96 3.714-2.87 3.979-1.91.318-3.71-.955-4.03-2.865-.32-1.91.95-3.714 2.86-4.033v.053Zm65.75-193.619c1.91-.318 3.71 1.008 4.03 2.865.32 1.911-.96 3.715-2.87 4.033-1.91.318-3.71-.955-4.03-2.865-.32-1.91.95-3.715 2.87-4.033Z"/>
    <use xlink:href="#p"/>
    <use xlink:href="#p"/>
    <path fill="#737373" d="M1277.29 482.019c1.92-.318 3.72.955 4.04 2.866.32 1.91-.96 3.714-2.87 3.979-1.91.318-3.71-.955-4.03-2.865-.32-1.91.95-3.714 2.86-4.033v.053ZM1175.42 44.5859c1.91-.3184 3.71.955 4.03 2.8652.32 1.9102-.96 3.7143-2.87 4.0327-1.91.3183-3.71-.9551-4.03-2.8653-.32-1.9102.96-3.7143 2.87-4.0326ZM1487.9 155.112c1.91-.319 3.71.955 4.03 2.865.32 1.91-.96 3.714-2.87 4.033-1.91.318-3.71-.956-4.03-2.866-.32-1.91.96-3.714 2.87-3.979v-.053Z"/>
  </g>
</svg>