<svg xmlns="http://www.w3.org/2000/svg" width="60" height="60" fill="none">
  <path stroke="#1571BA" stroke-width="3.75" d="M40 10c5.4376.0303 8.3823.2714 10.3033 2.1924C52.5 14.3891 52.5 17.9246 52.5 24.9957v15c0 7.071 0 10.6066-2.1967 12.8033S44.5711 54.9957 37.5 54.9957h-15c-7.0711 0-10.6066 0-12.8033-2.1967S7.5 47.0667 7.5 39.9957v-15c0-7.0711 0-10.6066 2.1967-12.8033C11.6177 10.2714 14.5624 10.0303 20 10"/>
  <path stroke="#1571BA" stroke-linecap="round" stroke-linejoin="round" stroke-width="3.75" d="m22.5 33.5 4.2857 4L37.5 27.5"/>
  <path stroke="#1571BA" stroke-width="3.75" d="M20 8.75C20 6.67893 21.6789 5 23.75 5h12.5C38.3211 5 40 6.67893 40 8.75v2.5c0 2.0711-1.6789 3.75-3.75 3.75h-12.5C21.6789 15 20 13.3211 20 11.25v-2.5Z"/>
</svg>