<svg xmlns="http://www.w3.org/2000/svg" width="60" height="60" fill="none">
  <path fill="#1571BA" fill-rule="evenodd" d="M29.8566 3.125h.2868c5.771-.00003 10.2936-.00006 13.8223.47437 3.6119.4856 6.4619 1.49895 8.699 3.73597 2.237 2.23703 3.2503 5.08706 3.7359 8.69896.4745 3.5287.4744 8.0513.4744 13.8223v.2868c0 5.771.0001 10.2936-.4744 13.8223-.4856 3.6119-1.4989 6.4619-3.7359 8.699-2.2371 2.237-5.0871 3.2503-8.699 3.7359-3.5287.4745-8.0513.4744-13.8223.4744h-.2868c-5.771 0-10.2936.0001-13.8223-.4744-3.6119-.4856-6.46193-1.4989-8.69896-3.7359-2.23702-2.2371-3.25037-5.0871-3.73597-8.699-.47443-3.5287-.4744-8.0513-.47437-13.8223v-.2868c-.00003-5.771-.00006-10.2936.47437-13.8223.4856-3.6119 1.49895-6.46193 3.73597-8.69896 2.23703-2.23702 5.08706-3.25037 8.69896-3.73597 3.5287-.47443 8.0513-.4744 13.8223-.47437ZM16.5339 7.31593c-3.196.42969-5.1228 1.24692-6.54691 2.67106-1.42414 1.42411-2.24137 3.35091-2.67106 6.54691C6.87898 19.7839 6.875 24.0544 6.875 30c0 5.9456.00398 10.2161.44093 13.4661.42969 3.196 1.24692 5.1228 2.67106 6.5469 1.42411 1.4241 3.35091 2.2414 6.54691 2.6711 3.25.4369 7.5205.4409 13.4661.4409 5.9456 0 10.2161-.004 13.4661-.4409 3.196-.4297 5.1228-1.247 6.5469-2.6711 1.4241-1.4241 2.2414-3.3509 2.6711-6.5469.4369-3.25.4409-7.5205.4409-13.4661 0-5.9456-.004-10.2161-.4409-13.4661-.4297-3.196-1.247-5.1228-2.6711-6.54691-1.4241-1.42414-3.3509-2.24137-6.5469-2.67106C40.2161 6.87898 35.9456 6.875 30 6.875c-5.9456 0-10.2161.00398-13.4661.44093Z" clip-rule="evenodd"/>
  <path fill="#1571BA" fill-rule="evenodd" d="M40.0758 22.4242c.7323.7322.7323 1.9194 0 2.6516l-12.5 12.5c-.7322.7323-1.9194.7323-2.6516 0l-5-5c-.7323-.7322-.7323-1.9194 0-2.6516.7322-.7323 1.9194-.7323 2.6516 0l3.6742 3.6742 11.1742-11.1742c.7322-.7323 1.9194-.7323 2.6516 0Z" clip-rule="evenodd"/>
</svg>