<svg xmlns="http://www.w3.org/2000/svg" width="60" height="60" fill="none">
  <path fill="#1571BA" fill-rule="evenodd" d="M30 6.875C17.2284 6.875 6.875 17.2284 6.875 30S17.2284 53.125 30 53.125 53.125 42.7716 53.125 30 42.7716 6.875 30 6.875ZM3.125 30C3.125 15.1573 15.1573 3.125 30 3.125S56.875 15.1573 56.875 30 44.8427 56.875 30 56.875 3.125 44.8427 3.125 30Z" clip-rule="evenodd"/>
  <path fill="#1571BA" fill-rule="evenodd" d="M14.375 30c0 1.0355-.8395 1.875-1.875 1.875H5c-1.03553 0-1.875-.8395-1.875-1.875 0-1.0355.83947-1.875 1.875-1.875h7.5c1.0355 0 1.875.8395 1.875 1.875Zm42.5 0c0 1.0355-.8395 1.875-1.875 1.875h-7.5c-1.0355 0-1.875-.8395-1.875-1.875 0-1.0355.8395-1.875 1.875-1.875H55c1.0355 0 1.875.8395 1.875 1.875ZM30 45.625c1.0355 0 1.875.8395 1.875 1.875V55c0 1.0355-.8395 1.875-1.875 1.875-1.0355 0-1.875-.8395-1.875-1.875v-7.5c0-1.0355.8395-1.875 1.875-1.875Zm0-42.5c1.0355 0 1.875.83947 1.875 1.875v7.5c0 1.0355-.8395 1.875-1.875 1.875-1.0355 0-1.875-.8395-1.875-1.875V5c0-1.03553.8395-1.875 1.875-1.875Zm0 20c1.0355 0 1.875.8395 1.875 1.875v3.125H35c1.0355 0 1.875.8395 1.875 1.875 0 1.0355-.8395 1.875-1.875 1.875h-3.125V35c0 1.0355-.8395 1.875-1.875 1.875-1.0355 0-1.875-.8395-1.875-1.875v-3.125H25c-1.0355 0-1.875-.8395-1.875-1.875 0-1.0355.8395-1.875 1.875-1.875h3.125V25c0-1.0355.8395-1.875 1.875-1.875Z" clip-rule="evenodd"/>
</svg>