<svg xmlns="http://www.w3.org/2000/svg" xmlns:xlink="http://www.w3.org/1999/xlink" width="60" height="60" fill="none">
  <defs>
    <path id="a" fill="#1571BA" fill-rule="evenodd" d="M5 3.125c1.03554 0 1.875.83947 1.875 1.875v25c0 5.9456.00398 10.2161.44093 13.4661.42969 3.196 1.24692 5.1228 2.67106 6.5469 1.42411 1.4241 3.35091 2.2414 6.54691 2.6711 3.25.4369 7.5205.4409 13.4661.4409h25c1.0355 0 1.875.8395 1.875 1.875 0 1.0355-.8395 1.875-1.875 1.875H29.8566c-5.771 0-10.2936.0001-13.8223-.4744-3.6119-.4856-6.46193-1.4989-8.69896-3.7359-2.23702-2.2371-3.25037-5.0871-3.73597-8.699-.47443-3.5287-.4744-8.0513-.47437-13.8223V5c0-1.03553.83947-1.875 1.875-1.875Z" clip-rule="evenodd"/>
    <path id="b" fill="#1571BA" fill-rule="evenodd" d="M48.6665 16.0317c.8109.6439.9462 1.8234.3023 2.6343l-7.8335 9.8643c-.5643.7107-1.0455 1.3167-1.4729 1.7858-.4442.4876-.9333.9458-1.5495 1.2752-1.5807.8451-3.4696.8862-5.0856.1107-.6299-.3023-1.1385-.7388-1.6036-1.2067-.4473-.45-.9545-1.0346-1.5491-1.72l-.0404-.0466c-.6462-.7446-1.0699-1.2315-1.4168-1.5804-.3392-.3414-.4956-.4355-.5663-.4695-.5387-.2585-1.1683-.2448-1.6952.0369-.0693.037-.2213.1379-.5454.4936-.3314.3637-.7336.8685-1.3467 1.6406l-7.7955 9.8162c-.644.8109-1.8234.9462-2.6344.3022-.8109-.644-.9462-1.8234-.3022-2.6344l7.8338-9.8644c.5643-.7106 1.0455-1.3166 1.4729-1.7857.4443-.4877.9334-.9459 1.5496-1.2752 1.5807-.8451 3.4695-.8862 5.0855-.1106.6299.3022 1.1385.7387 1.6036 1.2066.4473.4501.9545 1.0346 1.5492 1.7201l.0403.0465c.6461.7447 1.0699 1.2315 1.4168 1.5805.3392.3413.4956.4355.5663.4694.5387.2586 1.1683.2449 1.6952-.0368.0693-.037.2214-.1379.5455-.4937.3313-.3637.7335-.8685 1.3466-1.6406l7.7951-9.816c.644-.811 1.8234-.9463 2.6344-.3023Z" clip-rule="evenodd"/>
  </defs>
  <use xlink:href="#a" fill-rule="evenodd" clip-rule="evenodd"/>
  <use xlink:href="#b" fill-rule="evenodd" clip-rule="evenodd"/>
  <use xlink:href="#a" fill-rule="evenodd" clip-rule="evenodd"/>
  <use xlink:href="#b" fill-rule="evenodd" clip-rule="evenodd"/>
</svg>