<svg xmlns="http://www.w3.org/2000/svg" width="60" height="60" fill="none">
  <path fill="#1571BA" fill-rule="evenodd" d="M30 6.875c-4.4873 0-8.125 3.6377-8.125 8.125 0 4.4873 3.6377 8.125 8.125 8.125 4.4873 0 8.125-3.6377 8.125-8.125 0-4.4873-3.6377-8.125-8.125-8.125ZM18.125 15c0-6.55838 5.3166-11.875 11.875-11.875S41.875 8.44162 41.875 15c0 6.5584-5.3166 11.875-11.875 11.875S18.125 21.5584 18.125 15Zm25-5c0-1.03553.8395-1.875 1.875-1.875 4.8431 0 9.375 3.3321 9.375 8.125 0 4.7929-4.5319 8.125-9.375 8.125-1.0355 0-1.875-.8395-1.875-1.875 0-1.0355.8395-1.875 1.875-1.875 3.4412 0 5.625-2.2643 5.625-4.375S48.4412 11.875 45 11.875c-1.0355 0-1.875-.8395-1.875-1.875Zm-26.25 0c0-1.03553-.8395-1.875-1.875-1.875-4.8431 0-9.375 3.3321-9.375 8.125 0 4.7929 4.5319 8.125 9.375 8.125 1.0355 0 1.875-.8395 1.875-1.875 0-1.0355-.8395-1.875-1.875-1.875-3.4412 0-5.625-2.2643-5.625-4.375s2.1838-4.375 5.625-4.375c1.0355 0 1.875-.8395 1.875-1.875Zm3.5585 26.989c-2.3793 1.5862-3.5585 3.5715-3.5585 5.511 0 1.9395 1.1792 3.9248 3.5585 5.511 2.3661 1.5774 5.7429 2.614 9.5665 2.614s7.2004-1.0366 9.5665-2.614c2.3793-1.5862 3.5585-3.5715 3.5585-5.511 0-1.9395-1.1792-3.9248-3.5585-5.511-2.3661-1.5774-5.7429-2.614-9.5665-2.614s-7.2004 1.0366-9.5665 2.614Zm-2.0802-3.1202C21.4161 31.827 25.5393 30.625 30 30.625c4.4607 0 8.5839 1.202 11.6467 3.2438 3.0496 2.0332 5.2283 5.0478 5.2283 8.6312s-2.1787 6.598-5.2283 8.6312C38.5839 53.173 34.4607 54.375 30 54.375c-4.4607 0-8.5839-1.202-11.6467-3.2438-3.0496-2.0332-5.2283-5.0478-5.2283-8.6312s2.1787-6.598 5.2283-8.6312Zm29.8152.7296c.2218-1.0115 1.2216-1.6517 2.2331-1.4299 2.4047.5274 4.5716 1.4799 6.1804 2.7963 1.6074 1.3153 2.793 3.1233 2.793 5.2852 0 2.1619-1.1856 3.9699-2.793 5.2852-1.6088 1.3164-3.7757 2.2689-6.1804 2.7963-1.0115.2218-2.0113-.4184-2.2331-1.4299-.2218-1.0115.4184-2.0113 1.4299-2.2331 1.9809-.4344 3.564-1.1805 4.6088-2.0355 1.0462-.8561 1.4178-1.6922 1.4178-2.383 0-.6908-.3716-1.5269-1.4178-2.383-1.0448-.855-2.6279-1.6011-4.6088-2.0355-1.0115-.2218-1.6517-1.2216-1.4299-2.2331Zm-36.337 0c-.2218-1.0115-1.2216-1.6517-2.23313-1.4299-2.40471.5274-4.57162 1.4799-6.18039 2.7963C1.81062 37.2801.625 39.0881.625 41.25c0 2.1619 1.18562 3.9699 2.79298 5.2852 1.60877 1.3164 3.77568 2.2689 6.18039 2.7963 1.01153.2218 2.01133-.4184 2.23313-1.4299.2218-1.0115-.4184-2.0113-1.4299-2.2331-1.98088-.4344-3.56397-1.1805-4.6088-2.0355-1.04623-.8561-1.4178-1.6922-1.4178-2.383 0-.6908.37157-1.5269 1.4178-2.383 1.04483-.855 2.62792-1.6011 4.6088-2.0355 1.0115-.2218 1.6517-1.2216 1.4299-2.2331Z" clip-rule="evenodd"/>
</svg>