<svg xmlns="http://www.w3.org/2000/svg" width="60" height="60" fill="none">
  <path fill="#1571BA" fill-rule="evenodd" d="M29.8438 3.125h.3124c5.1708-.00005 9.2633-.00009 12.4651.47822 3.31.49447 5.9345 1.53381 7.9773 3.80364 2.0174 2.24154 2.918 5.07364 3.3509 8.65204.4255 3.5164.4255 8.0286.4255 13.8106v.261c0 5.782 0 10.2942-.4255 13.8106-.4329 3.5784-1.3335 6.4105-3.3509 8.652-2.0428 2.2699-4.6673 3.3092-7.9773 3.8037-3.2018.4783-7.2943.4782-12.465.4782h-.3126c-5.1707 0-9.2632.0001-12.465-.4782-3.31-.4945-5.9345-1.5338-7.97733-3.8037-2.01739-2.2415-2.91793-5.0736-3.35091-8.652-.4255-3.5165-.42548-8.0286-.42546-13.8107v-.2608c-.00002-5.7821-.00004-10.2942.42546-13.8107.43298-3.5784 1.33352-6.4105 3.35091-8.65204 2.04283-2.26983 4.66733-3.30917 7.97733-3.80364 3.2018-.47831 7.2943-.47827 12.4651-.47822ZM17.9327 7.31207c-2.8171.42083-4.4918 1.21207-5.744 2.60341-1.2776 1.41962-2.0246 3.36432-2.4154 6.59382C9.37824 19.7743 9.375 24.0596 9.375 30s.00324 10.2257.3983 13.4907c.3908 3.2295 1.1378 5.1742 2.4154 6.5938 1.2522 1.3914 2.9269 2.1826 5.744 2.6034 2.893.4322 6.7053.4371 12.0673.4371 5.362 0 9.1743-.0049 12.0673-.4371 2.8171-.4208 4.4918-1.212 5.744-2.6034 1.2776-1.4196 2.0246-3.3643 2.4154-6.5938.3951-3.265.3983-7.5503.3983-13.4907s-.0032-10.2257-.3983-13.4907c-.3908-3.2295-1.1378-5.1742-2.4154-6.59382-1.2522-1.39134-2.9269-2.18258-5.744-2.60341C39.1743 6.8799 35.362 6.875 30 6.875c-5.362 0-9.1743.0049-12.0673.43707Z" clip-rule="evenodd"/>
  <path fill="#1571BA" fill-rule="evenodd" d="M22.2906 13.1248c.0692.0001.1391.0002.2097.0002h15c.0706 0 .1405-.0001.2097-.0002.952-.001 1.7733-.0018 2.4962.1919 1.9411.5201 3.4573 2.0363 3.9774 3.9774.1937.7229.1928 1.5442.1918 2.4962 0 .0692-.0001.1391-.0001.2097s.0001.1405.0001.2097c.001.952.0019 1.7733-.1918 2.4961-.5201 1.9412-2.0363 3.4574-3.9774 3.9775-.7229.1937-1.5442.1928-2.4962.1918-.0692 0-.1391-.0001-.2097-.0001h-15c-.0706 0-.1405.0001-.2097.0001-.952.001-1.7733.0019-2.4962-.1918-1.9411-.5201-3.4573-2.0363-3.9774-3.9775-.1937-.7228-.1929-1.5441-.1919-2.4961.0001-.0692.0002-.1391.0002-.2097s-.0001-.1405-.0002-.2097c-.001-.952-.0018-1.7733.1919-2.4962.5201-1.9411 2.0363-3.4573 3.9774-3.9774.7229-.1937 1.5442-.1929 2.4962-.1919Zm.2097 3.7502c-1.2832 0-1.557.0161-1.7353.0639-.647.1733-1.1524.6788-1.3258 1.3258-.0478.1783-.0639.4521-.0639 1.7353 0 1.2832.0161 1.5569.0639 1.7353.1734.647.6788 1.1524 1.3258 1.3258.1783.0478.4521.0639 1.7353.0639h15c1.2832 0 1.5569-.0161 1.7353-.0639.647-.1734 1.1524-.6788 1.3258-1.3258.0478-.1784.0639-.4521.0639-1.7353 0-1.2832-.0161-1.557-.0639-1.7353-.1734-.647-.6788-1.1525-1.3258-1.3258-.1784-.0478-.4521-.0639-1.7353-.0639h-15Z" clip-rule="evenodd"/>
  <path fill="#1571BA" d="M22.5 32.5c0 1.3807-1.1193 2.5-2.5 2.5s-2.5-1.1193-2.5-2.5S18.6193 30 20 30s2.5 1.1193 2.5 2.5Zm0 10c0 1.3807-1.1193 2.5-2.5 2.5s-2.5-1.1193-2.5-2.5S18.6193 40 20 40s2.5 1.1193 2.5 2.5Zm10-10c0 1.3807-1.1193 2.5-2.5 2.5s-2.5-1.1193-2.5-2.5S28.6193 30 30 30s2.5 1.1193 2.5 2.5Zm0 10c0 1.3807-1.1193 2.5-2.5 2.5s-2.5-1.1193-2.5-2.5S28.6193 40 30 40s2.5 1.1193 2.5 2.5Zm10-10c0 1.3807-1.1193 2.5-2.5 2.5s-2.5-1.1193-2.5-2.5S38.6193 30 40 30s2.5 1.1193 2.5 2.5Zm0 10c0 1.3807-1.1193 2.5-2.5 2.5s-2.5-1.1193-2.5-2.5S38.6193 40 40 40s2.5 1.1193 2.5 2.5Z"/>
</svg>