<svg xmlns="http://www.w3.org/2000/svg" width="59" height="59" fill="none">
  <g clip-path="url(#a)">
    <path fill="#002F87" d="M58.3997 35.4356C61.6762 19.4756 51.394 3.88137 35.434.604967 19.474-2.67143 3.87975 7.61068.603349 23.5707-2.67305 39.5308 7.60906 55.125 23.5691 58.4014c15.96 3.2764 31.5542-7.0057 34.8306-22.9658Z"/>
    <path fill="#fff" d="M33.0491 27.6718c1.3415-.546 2.1606-1.4008 2.6948-2.0418 1.0209-1.1753 1.4364-2.6117 1.4364-3.9769 0-1.104-.3086-3.3002-2.2318-4.8078-1.3296-1.021-2.5048-1.5195-5.3064-1.5195h-7.4195v27.648h16.7147v-5.3064c0-5.0809-1.6383-8.4998-5.8882-9.9956Zm2.1012 13.7707H32.135v-9.224h-3.4782v9.2358h-2.6592V16.7028h2.7423c1.0209 0 2.576.2256 3.68 1.5908.5699.6885.926 1.6144 1.0447 2.5285h-4.796v1.3652h4.8435c-.0356.8785-.2137 1.8638-1.0803 2.9085-.7597.9497-2.0062 1.8281-3.7632 1.8281h-.0356v1.3771c4.701 0 6.5292 3.1221 6.5292 8.8441l-.0119 4.2974ZM20.5843 7.18209c-.2374-.73601.0119-1.46016.6055-1.85191-.5936.39175-.831 1.12777-.6055 1.85191.2849.8666 1.1515 1.37706 2.03 1.09215.4392-.14245.7598-.43923.9378-.81911-.1662.36801-.4867.67666-.9378.81911-.8785.28491-1.7451-.22555-2.03-1.09215Zm1.935 46.93881c-.5104-.1424-.7241-.4511-.6291-.8072-.095.3561.1187.6529.6291.8072Zm30.3785-18.8515c-.7954-.1424-1.3652-.7479-1.3889-1.5076.0119.7597.5935 1.3652 1.3889 1.5076Zm-2.0181-15.207c-.0593.0593-.1187.1187-.1781.1899.0475-.0712.1069-.1306.1781-.1899Zm2.7185.5223c.3205.8785-.1543 1.7569-1.009 2.0775-.0831.0237-.1544.0237-.2375.0475.0831-.0238.1544-.0119.2375-.0475.8547-.3206 1.3295-1.199 1.009-2.0775Zm-32.171 30.4378c-.1781.6292.095 1.0328.5698 1.3652-.3799.0713-.7835.2731-.9378.8191-.095.3206-.0594.5936.0831.8429.1781.3324.5342.6173 1.0565.7716l1.7095.4393 1.3058-4.4755-1.7569-.5105c-1.0091-.2967-1.7926-.0593-2.03.7479Zm1.9113 3.3358-.8192-.2374c-.5104-.1424-.7241-.4511-.6291-.8072.0949-.3205.3442-.4511.6766-.4393.1069 0 .2256.0238.3562.0594l.7597.2256-.3442 1.1989Zm.5342-1.8637-.9379-.2731c-.6291-.178-.8547-.4986-.7478-.8784.0949-.3087.3323-.463.6766-.4393.1187 0 .2374.0238.3799.0712l.9853.285-.3561 1.2346Zm-.926-.2731c-.6292-.178-.8666-.4986-.7479-.8784.095-.3087.3324-.463.6767-.4393-.3443-.0119-.5817.1306-.6767.4393-.1187.3798.1187.6885.7479.8784Zm-5.9593-3.2171c-.4749.8191-.1306 1.6264.7716 2.1606l.641.3799-.8547 1.4601.7004.4155 2.3742-4.0362-1.3414-.7835c-.926-.5817-1.8163-.4155-2.2911.4036Zm1.7688 1.9113-.6173-.3561c-.5342-.3206-.7123-.7242-.463-1.1397.1306-.2255.3086-.3561.5223-.3917.2137-.0357.4511.0356.7123.1899l.6292.368-.7835 1.3296Zm-.5461-1.8875c.2137-.0357.4511.0356.7123.1899-.2612-.1543-.5105-.2137-.7123-.1899Zm-1.2227-1.8163-2.6948 3.8344-.6648-.4749 2.6948-3.8344.6648.4749ZM4.64128 28.942c.80724.0594 1.24647-.4154 1.41267-.7953l.81912.7004c.21368.1899.368.5698.27304.8191l.71227-.0119c.17807-.3799.07123-.9378-.47485-1.4008l-1.10402-.9259.04748-.5699 1.68571.1544.11872-.831-4.64165-.368c-.04749.2611-.15433 1.2821-.1662 1.4245-.10684 1.2702.51046 1.7332 1.31771 1.8044Zm-.47485-2.3505 1.38893.1188-.04748.5342c-.03562.4748-.30866.8784-.79538.831-.368-.0238-.66479-.2612-.60543-.926.01187-.1543.03561-.3443.05936-.558Zm9.37827 20.9646c-.9734.8904-2.4692.9022-3.4545-.1543-.58172-.6292-.77166-1.4127-.62921-2.1368l.81911.1781c-.1306.4985-.0119 1.0327.368 1.4601.6292.6885 1.6145.6529 2.303.0238.6648-.6173.7717-1.6145.1425-2.3031-.4036-.4273-.9378-.5817-1.4602-.4748l-.1187-.8191c.7479-.1069 1.5433.1424 2.1487.7835.9853 1.0565.8666 2.5404-.1187 3.4426ZM8.4282 34.4859l-1.17525-.2849c-.07123-.368-.13059-.7241-.18994-1.0921-.05936-.3681-.10684-.7361-.15433-1.1041l1.02093-.6291-.05936-.9023-4.39235 2.8135.11871.7598 5.05714 1.2939-.22555-.8547Zm-1.94688-.4748-1.97063-.4868 1.70946-1.0921c.03561.2612.07123.5342.11871.7954.03562.2611.0831.5223.14246.7835Zm0 0c-.04749-.2612-.09497-.5224-.14246-.7835-.04748-.2612-.0831-.5224-.11871-.7954.03561.2612.07123.5342.11871.7954.03562.2611.0831.5223.14246.7835Zm4.47548 8.0724-3.53766 1.7332c-.15432-.2256-.29678-.463-.43923-.6885l3.51389-1.7451c-.3205-.5223-.62918-1.0447-.90222-1.5907l-3.51389 1.7213c-.13058-.2493-.24929-.4867-.368-.736l3.51388-1.7214c-.26117-.5579-.49859-1.1277-.71227-1.7094l-3.52576 1.7332c-.09497-.2612-.18994-.5105-.28491-.7717l3.53763-1.745.68853-.3443c.64104 1.9588 1.54321 3.8107 2.70661 5.5201l-.6766.3443Zm40.2197-23.2083c-1.2465.463-1.9232 1.7807-1.4246 3.1341.4986 1.3533 1.8876 1.9231 3.134 1.4601 1.2465-.463 1.9232-1.7807 1.4246-3.134-.4986-1.3533-1.8994-1.9231-3.134-1.4602Zm2.4217 1.7095c.3205.8785-.1543 1.7569-1.009 2.0775-.0831.0237-.1544.0237-.2375.0475-.7953.178-1.5788-.1544-1.8756-.9379-.2018-.546-.095-1.0921.2255-1.5076.0475-.0712.1188-.1306.1781-.19.0119-.0118.0237-.0237.0356-.0474.0356-.0357.0831-.0594.1187-.095.0475-.0356.095-.0712.1425-.1069h.0119c.0949-.0593.1899-.1068.2967-.1424.4393-.1662.8785-.1543 1.2584 0s.6885.463.8547.9022Zm-2.5642-.6529c.0475-.0356.095-.0712.1425-.1069-.0475.0238-.095.0713-.1425.1069Zm2.5642 11.3608c-1.3177-.2256-2.5642.5698-2.8135 1.9824-.2493 1.4127.6648 2.6117 1.9588 2.8373 1.3177.2255 2.5642-.5698 2.8135-1.9825.2493-1.4127-.6648-2.6117-1.9588-2.8372Zm1.2109 2.6947c-.0356.2256-.1187.4393-.2374.6055-.3562.5223-1.0091.7953-1.6739.6766-.7954-.1424-1.3652-.7479-1.3889-1.5076 0-.1069 0-.2256.0237-.3324.0356-.2256.1187-.4393.2375-.6055.3561-.5223 1.009-.7953 1.6738-.6766.9141.1543 1.5314.9259 1.3652 1.84Zm-1.9113 1.2821c.6767.1187 1.3296-.1424 1.6739-.6766-.3562.5223-1.0091.7953-1.6739.6766Zm.5461-3.134c-.6767-.1187-1.3296.1425-1.6738.6767.3561-.5342 1.009-.7954 1.6738-.6767Zm-1.9469 1.6145c0-.1068 0-.2256.0238-.3324-.0119.1187-.0238.2256-.0238.3324Zm-5.0334-17.7475 3.87-2.5404.4986.6648-1.6263 1.0684.2611.4036 2.5049.2849.4986.8191-2.8491-.4036-.4749 1.5076c-.1662.5342-.1662.9023.095 1.1278l-.5936.3918c-.5579-.463-.4867-1.1516-.2374-1.852l.4867-1.3889-.3086-.4748-1.6264 1.0684-.4986-.6767ZM42.558 46.8082l2.4454 3.9413-.6766.4748-1.0209-1.6619-.4037.2493-.3442 2.4929-.831.4867.4748-2.8372-1.5076-.5342c-.5342-.1781-.9022-.1899-1.1278.0594l-.3917-.5936c.4867-.5461 1.1634-.463 1.8638-.1899l1.377.5223.4749-.2968-1.021-1.6501.6886-.463Zm4.238-4.2617 3.4308 3.1459-.5105.6291-2.4929-2.2911.7597 4.1787-.5817.5579-3.4307-3.1459.5935-.5579 2.5167 2.3149-.7716-4.2143.4867-.6173Zm-8.7016 6.8378 1.4245 4.4398-.7597.2968-1.0328-3.2171-1.4008 4.0125-.7835.2018-1.4246-4.4398.7835-.19 1.0447 3.2527 1.4127-4.048.736-.3087Zm11.895-12.8447 4.0718 2.3862-.4511 1.0921s-3.1696-.3443-3.7038-.463l-.0119.0238c.4036.3442 2.5879 2.7185 2.5879 2.7185l-.5935 1.009-4.3449-1.8163.463-.7478 1.7688.7597c.5579.2374 1.2227.5342 1.7925.8191l.0119-.0237c-.4392-.4036-2.8016-2.9916-2.8016-2.9916l.3086-.6291s3.419.4154 4.0125.546l.0119-.0118c-.5461-.2968-1.199-.653-1.7569-.9616l-1.6501-.9378.2849-.7717Zm.7835-11.2064 4.6297-.4392.1306.8191-1.9587.178h-.0119c.0594.4393.1187.8904.1662 1.3296.0356.4393.0712.8904.0831 1.3415h.0119l1.935-.1781.0356.8191-4.6298.4393-.0237-.831 1.9112-.1781h.0238c-.0119-.4511-.0475-.8903-.0831-1.3415-.0475-.4392-.095-.8903-.1662-1.3295h-.0238l-1.9112.178-.1187-.8072Zm-6.7785-11.8594c-.6529-.5935-.9141-1.3889-.8072-2.1368l.8191.1187c-.1069.5224.0474 1.0566.4867 1.4602.5935.5461 1.4245.5342 2.03.0831-.3443-.3561-.7004-.7004-1.0684-1.0328-.1425-.1306-.2968-.273-.4512-.4036l.4749-.558c.1543.1306.3086.2731.463.4155.368.3324.7241.6767 1.0684 1.0328.3917-.6529.3205-1.4601-.2731-1.9943-.4273-.3799-.9615-.48677-1.4601-.3562l-.1781-.8191c.7242-.15433 1.5077.03561 2.1368.60543 1.0684.97347 1.0803 2.46917.19 3.44267-.8904.9853-2.3624 1.1159-3.4308.1424ZM22.8399 8.99839c1.377-.43924 1.9943-1.80443 1.5907-3.06278-.4155-1.27022-1.7094-1.99436-3.0746-1.55513-1.3652.45111-1.9944 1.8163-1.5908 3.06278.4155 1.27022 1.7095 2.00624 3.0747 1.55513Zm-1.6501-3.66821c.1187-.0831.2374-.1662.3917-.22555.8904-.28491 1.7451.22555 2.03 1.09215.1425.43923.1187.89034-.0594 1.25835-.1662.36801-.4867.67666-.9378.81911-.8903.28491-1.7451-.22555-2.03-1.09215-.2374-.72414.0119-1.46016.6055-1.85191Zm.3917-.22555c-.1543.04748-.2611.14245-.3917.21368.1187-.07123.2374-.1662.3917-.21368.8904-.28491 1.757.22555 2.03 1.09215.1425.43923.1187.89034-.0594 1.25835.1662-.36801.2019-.81912.0594-1.25835-.2849-.8666-1.1515-1.37706-2.03-1.09215ZM16.56 12.1205l-2.4217-3.9531.6766-.47485 1.0209 1.66198.4037-.2493.368-2.49296.831-.47485-.4986 2.82536 1.5076.5342c.5342.18994.9022.20181 1.1278-.05936l.368.61728c-.4867.5342-1.1634.4511-1.8638.1781l-1.3771-.52234-.4867.29674 1.0091 1.6501-.6648.463Zm-5.8407 5.2115-2.97963-2.5761c.15432-.2255.30865-.4511.47485-.6766l2.97968 2.5642c.3561-.4986.7241-.9854 1.1159-1.4483L9.35415 12.631c.17807-.2137.35614-.4155.53421-.6292l2.95594 2.5642c.4155-.463.8429-.9022 1.294-1.3296l-2.9797-2.5642c.1899-.1899.3917-.3798.5935-.5698l2.9797 2.5761.5817.4986c-1.5551 1.3533-2.9084 2.9084-4.0125 4.6535l-.5817-.4986ZM32.6099 6.98028c.368.04749.736.10684 1.0921.17807.3562.07123.7242.14245 1.0803.22555l.2493 1.17525.8666.2493-1.1634-5.08089-.7479-.14245-2.9321 4.32113.8784.0831.6767-1.00906Zm1.567-2.36237.4511 1.97062c-.2612-.05936-.5223-.10684-.7835-.1662-.2612-.04748-.5223-.09497-.7835-.13058l1.1159-1.67384Zm-8.0012 3.52575c-.1781.01187-.4393-.01187-.5698-.02374l.0237-.67666c.0594.01187.1662.02374.273.02374.4749-.03561.8904-.36801.6767-3.16962l-.0119-.18994-.0593-.73601c.0356 0 .0831-.01187.1187-.01187l1.7688-.13059c.4392-.02374.8903-.02374 1.3296-.02374l.0593.73602.2968 3.87002-.8191.05935-.2968-3.9175c-.4748-.01187-.9378.01187-1.4008.04748-.0831.01187-.1543.01187-.2374.02375l.0356.4511c.2256 2.96781-.2612 3.59698-1.1871 3.66821Zm4.2736 45.38374c0 .5223-.4155.9378-.9378.9378s-.9378-.4155-.9378-.9378c0-.5224.4155-.9379.9378-.9379s.9378.4155.9378.9379ZM6.31512 20.4897c.04748-.5104.51046-.8903 1.0328-.8428.51046.0475.89034.5104.84285 1.0328-.04748.5104-.51046.8903-1.03279.8428-.52234-.0593-.90222-.5104-.84286-1.0328ZM39.4952 7.69255c.2374-.46297.7954-.65291 1.2584-.41549.4629.23743.6529.79537.4154 1.25835-.2374.46298-.7953.65292-1.2583.41549-.463-.23742-.6529-.79537-.4155-1.25835Z"/>
  </g>
  <defs>
    <clipPath id="a">
      <path fill="#fff" d="M0 0h59v59H0z"/>
    </clipPath>
  </defs>
</svg>