<svg xmlns="http://www.w3.org/2000/svg" width="54" height="56" fill="none">
  <path fill-rule="evenodd" clip-rule="evenodd" d="M1.69332 17.5434c-.34462-.3446-.34462-.9033 0-1.248L17.0501.938675c.3446-.344619.9033-.344619 1.248-.000001.3446.344616.3446.903356 0 1.247976L2.94129 17.5434c-.34461.3446-.90335.3446-1.24797 0Zm-.64453 24.6995c-.344617-.3446-.344617-.9034 0-1.248L18.2849 23.7588c.3446-.3446.9033-.3446 1.248 0 .3446.3446.3446.9034 0 1.248L2.29676 42.2429c-.34462.3446-.90335.3446-1.24797 0ZM13.1836 54.7541c-.3447-.3446-.3447-.9033 0-1.248L30.4196 36.27c.3447-.3446.9034-.3446 1.248 0 .3446.3447.3446.9034 0 1.248L14.4315 54.7541c-.3446.3446-.9033.3446-1.2479 0ZM.780236 48.4179c-.344618-.3446-.344618-.9033 0-1.2479L18.0163 29.9339c.3446-.3447.9034-.3447 1.248 0 .3446.3446.3446.9033 0 1.2479L2.02821 48.4179c-.34462.3446-.90336.3446-1.247974 0Zm.268554 5.4234c-.344617-.3446-.344617-.9034 0-1.248L18.2849 35.3572c.3446-.3446.9033-.3446 1.248 0 .3446.3446.3446.9034 0 1.248L2.29676 53.8413c-.34462.3446-.90335.3446-1.24797 0Zm5.47656.9128c-.34461-.3446-.34461-.9033 0-1.248L23.7614 36.27c.3447-.3446.9034-.3446 1.248 0 .3446.3447.3446.9034 0 1.248L7.77333 54.7541c-.34462.3446-.90336.3446-1.24798 0Zm.91309-37.2107c-.34462-.3446-.34462-.9033 0-1.248L22.7952.938675c.3446-.344619.9034-.344619 1.248-.000001.3446.344616.3446.903356 0 1.247976L8.68641 17.5434c-.34462.3446-.90335.3446-1.24797 0Zm5.74516 0c-.3447-.3446-.3447-.9033 0-1.248L28.5403.938675c.3446-.344619.9034-.344619 1.248-.000001.3446.344616.3446.903356 0 1.247976L14.4315 17.5434c-.3446.3446-.9033.3446-1.2479 0Zm5.7461 0c-.3447-.3446-.3447-.9033 0-1.248L34.2864.938675c.3446-.344619.9034-.344619 1.248-.000001.3446.344616.3446.903356 0 1.247976L20.1776 17.5434c-.3446.3446-.9033.3446-1.2479 0Zm5.7451 0c-.3447-.3446-.3447-.9033 0-1.248L40.0315.938675c.3447-.344619.9034-.344619 1.248-.000001.3446.344616.3446.903356 0 1.247976L25.9227 17.5434c-.3446.3446-.9033.3446-1.2479 0Zm5.7451 0c-.3446-.3446-.3446-.9033 0-1.248L45.7767.938675c.3446-.344619.9033-.344619 1.2479-.000001.3446.344616.3446.903356 0 1.247976L31.6679 17.5434c-.3447.3446-.9034.3446-1.248 0Zm5.7451 0c-.3446-.3446-.3446-.9033 0-1.248L51.5218.938675c.3446-.344619.9033-.344619 1.2479-.000001.3447.344616.3447.903356 0 1.247976L37.413 17.5434c-.3446.3446-.9034.3446-1.248 0Zm0 6.1748c-.3446-.3446-.3446-.9033 0-1.2479L51.5218 7.11348c.3446-.34462.9033-.34462 1.2479 0 .3447.34462.3447.90335 0 1.24797L37.413 23.7182c-.3446.3446-.9034.3446-1.248 0Zm0 6.1751c-.3446-.3446-.3446-.9034 0-1.248l15.3568-15.3568c.3446-.3446.9033-.3446 1.2479 0 .3447.3446.3447.9034 0 1.248L37.413 29.8933c-.3446.3446-.9034.3446-1.248 0Zm0 6.175c-.3446-.3446-.3446-.9033 0-1.248l15.3568-15.3567c.3446-.3446.9033-.3446 1.2479 0 .3447.3446.3447.9033 0 1.2479L37.413 36.0683c-.3446.3446-.9034.3446-1.248 0Zm0 6.1748c-.3446-.3446-.3446-.9033 0-1.2479l15.3568-15.3568c.3446-.3446.9033-.3446 1.2479 0 .3447.3446.3447.9033 0 1.248L37.413 42.2431c-.3446.3446-.9034.3446-1.248 0Zm0 6.1751c-.3446-.3446-.3446-.9034 0-1.248l15.3568-15.3568c.3446-.3446.9033-.3446 1.2479 0 .3447.3446.3447.9034 0 1.248L37.413 48.4182c-.3446.3446-.9034.3446-1.248 0Zm0 6.1748c-.3446-.3446-.3446-.9034 0-1.248l15.3568-15.3568c.3446-.3446.9033-.3446 1.2479 0 .3447.3447.3447.9034 0 1.248L37.413 54.593c-.3446.3446-.9034.3446-1.248 0Z" fill="#fff"/>
</svg>