<svg xmlns="http://www.w3.org/2000/svg" width="20" height="24" fill="none">
  <path d="M19 10c0 7-9 13-9 13s-9-6-9-13c0-2.38695.94821-4.67613 2.63604-6.36396S7.61305 1 10 1c2.3869 0 4.6761.94821 6.364 2.63604C18.0518 5.32387 19 7.61305 19 10Z" stroke="#475DA7" stroke-width="2" stroke-linecap="round" stroke-linejoin="round"/>
  <path d="M10 13c1.6569 0 3-1.3431 3-3 0-1.65685-1.3431-3-3-3-1.65685 0-3 1.34315-3 3 0 1.6569 1.34315 3 3 3Z" stroke="#475DA7" stroke-width="2" stroke-linecap="round" stroke-linejoin="round"/>
</svg>