<svg width="135" height="141" viewBox="0 0 135 141" fill="none" xmlns="http://www.w3.org/2000/svg">
<path d="M24.6621 35H0.758125V29.96L10.6461 20.984C12.9181 18.904 14.4701 17.24 15.3021 15.992C16.1981 14.712 16.6461 13.352 16.6461 11.912C16.6461 10.472 16.1181 9.336 15.0621 8.504C14.0061 7.64 12.6141 7.208 10.8861 7.208C7.75013 7.208 4.72613 8.488 1.81413 11.048V3.944C4.53413 1.8 7.79813 0.727998 11.6061 0.727998C14.8061 0.727998 17.5901 1.672 19.9581 3.56C22.3261 5.448 23.5101 7.928 23.5101 11C23.5101 13.368 22.9821 15.464 21.9261 17.288C20.9661 19.016 19.1261 21.144 16.4061 23.672L10.6461 28.952H24.6621V35ZM38.6361 35.672C35.1161 35.672 31.9321 34.872 29.0841 33.272V26.792C31.9321 28.584 35.0201 29.48 38.3481 29.48C40.5241 29.48 42.3001 28.984 43.6761 27.992C45.0841 27 45.7881 25.624 45.7881 23.864C45.7881 22.2 45.1001 20.856 43.7241 19.832C42.3801 18.808 40.5721 18.296 38.3001 18.296C35.6441 18.296 32.9561 18.776 30.2361 19.736L32.4441 1.4H50.3961V7.352H37.5321L36.8121 13.064C37.8041 12.84 38.8761 12.728 40.0281 12.728C43.7401 12.728 46.7641 13.752 49.1001 15.8C51.5001 17.848 52.7001 20.536 52.7001 23.864C52.7001 27.544 51.3401 30.44 48.6201 32.552C45.9001 34.632 42.5721 35.672 38.6361 35.672ZM73.5025 24.728H58.6705V18.632H73.5025V24.728ZM103.693 35H79.7894V29.96L89.6774 20.984C91.9494 18.904 93.5014 17.24 94.3334 15.992C95.2294 14.712 95.6774 13.352 95.6774 11.912C95.6774 10.472 95.1494 9.336 94.0934 8.504C93.0374 7.64 91.6454 7.208 89.9174 7.208C86.7814 7.208 83.7574 8.488 80.8454 11.048V3.944C83.5654 1.8 86.8294 0.727998 90.6374 0.727998C93.8374 0.727998 96.6214 1.672 98.9894 3.56C101.357 5.448 102.541 7.928 102.541 11C102.541 13.368 102.013 15.464 100.957 17.288C99.9974 19.016 98.1574 21.144 95.4374 23.672L89.6774 28.952H103.693V35ZM121.423 35.672C117.199 35.672 113.903 34.28 111.535 31.496C109.199 28.712 108.031 24.856 108.031 19.928C108.031 17.4 108.351 15 108.991 12.728C109.631 10.456 110.559 8.424 111.775 6.632C113.023 4.808 114.639 3.368 116.623 2.312C118.639 1.256 120.911 0.727998 123.439 0.727998C126.319 0.727998 128.847 1.448 131.023 2.888V9.128C128.911 7.688 126.639 6.968 124.207 6.968C121.455 6.968 119.279 7.832 117.679 9.56C116.111 11.256 115.231 13.432 115.039 16.088C116.831 14.008 119.439 12.968 122.863 12.968C125.903 12.968 128.463 13.96 130.543 15.944C132.591 17.896 133.615 20.52 133.615 23.816C133.615 27.304 132.447 30.152 130.111 32.36C127.807 34.568 124.911 35.672 121.423 35.672ZM120.991 29.72C122.687 29.72 124.063 29.192 125.119 28.136C126.207 27.048 126.751 25.656 126.751 23.96C126.751 22.328 126.207 20.984 125.119 19.928C124.031 18.872 122.655 18.344 120.991 18.344C119.679 18.344 118.447 18.744 117.295 19.544C116.143 20.344 115.327 21.352 114.847 22.568C114.943 24.84 115.535 26.6 116.623 27.848C117.711 29.096 119.167 29.72 120.991 29.72ZM88.3503 88.672C85.3743 88.672 82.7663 87.84 80.5263 86.176C78.3503 84.544 76.6863 82.432 75.5343 79.84C74.4143 77.248 73.8543 74.368 73.8543 71.2C73.8543 68.064 74.3983 65.216 75.4863 62.656C76.6383 59.968 78.3343 57.808 80.5743 56.176C82.8463 54.544 85.4383 53.728 88.3503 53.728C92.7663 53.728 96.2703 55.44 98.8623 58.864C101.486 62.256 102.798 66.368 102.798 71.2C102.798 76.032 101.486 80.144 98.8623 83.536C96.2703 86.96 92.7663 88.672 88.3503 88.672ZM82.8303 79.024C84.2383 81.136 86.0783 82.192 88.3503 82.192C90.6543 82.192 92.4783 81.136 93.8223 79.024C95.1983 76.88 95.8863 74.272 95.8863 71.2C95.8863 68.096 95.1983 65.504 93.8223 63.424C92.4783 61.28 90.6543 60.208 88.3503 60.208C86.0463 60.208 84.2063 61.28 82.8303 63.424C81.4543 65.504 80.7663 68.096 80.7663 71.2C80.7663 74.272 81.4543 76.88 82.8303 79.024ZM129.922 88H123.202V79.6H106.354V74.608L123.106 54.4H129.922V74.032H134.866V79.6H129.922V88ZM123.202 63.088L113.986 74.032H123.202V63.088ZM103.787 141H79.8831V135.96L89.7711 126.984C92.0431 124.904 93.5951 123.24 94.4271 121.992C95.3231 120.712 95.7711 119.352 95.7711 117.912C95.7711 116.472 95.2431 115.336 94.1871 114.504C93.1311 113.64 91.7391 113.208 90.0111 113.208C86.8751 113.208 83.8511 114.488 80.9391 117.048V109.944C83.6591 107.8 86.9231 106.728 90.7311 106.728C93.9311 106.728 96.7151 107.672 99.0831 109.56C101.451 111.448 102.635 113.928 102.635 117C102.635 119.368 102.107 121.464 101.051 123.288C100.091 125.016 98.2511 127.144 95.5311 129.672L89.7711 134.952H103.787V141ZM129.922 141H123.202V132.6H106.354V127.608L123.106 107.4H129.922V127.032H134.866V132.6H129.922V141ZM123.202 116.088L113.986 127.032H123.202V116.088Z" fill="#475DA7"/>
</svg>
